<svg version="1.0" id="Layer_1" xmlns="http://www.w3.org/2000/svg" xmlns:xlink="http://www.w3.org/1999/xlink" x="0px" y="0px" viewBox="0 0 24 24" style="enable-background:new 0 0 24 24;" xml:space="preserve">
<path d="M16.1,12.7c2,2.9,2.5,5.9,1.2,7.3c-0.166,0.166-0.362,0.295-0.572,0.406C14.584,22.061,9.631,23.431,5.1,18.9
	C0.2,14,2.2,8.6,4,6.8c0,0-0.006,0.055-0.012,0.138C4.026,6.893,4.058,6.842,4.1,6.8C5.5,5.4,8.4,6,11.4,8c-0.7,0.3-1.2,0.9-1.5,1.5
	C7.6,8,5.9,7.9,5.5,8.3c-0.5,0.6,0,3.7,3.3,7c3.4,3.3,6.5,3.8,7,3.3c0.4-0.4,0.2-2.2-1.2-4.4C15.2,13.8,15.8,13.3,16.1,12.7z
	 M7.3,11c0.3,0.5,0.5,0.9,0.9,1.4h0l3.046-0.457c0.186,0.344,0.466,0.625,0.811,0.811L11.6,15.8c0.4,0.3,0.9,0.6,1.3,0.8
	l0.521-3.646C14.323,12.76,15,11.96,15,11c0-1.105-0.895-2-2-2c-0.916,0-1.68,0.619-1.917,1.46L7.3,11z M20.593,1.993l-2.3,2.3
	l1.414,1.414l2.3-2.3L20.593,1.993z M14.993,7.593l1.414,1.414l2.3-2.3l-1.414-1.414L14.993,7.593z"></path>
</svg>